<svg xmlns="http://www.w3.org/2000/svg" viewBox="0 0 512 512" fill="none" stroke="#141414" stroke-linejoin="round" stroke-linecap="round">
<path d="M 326.00 205.00 L 359.42 218.18 L 356.59 236.80 L 320.76 239.46 L 303.85 273.18 L 323.14 303.49 L 309.90 316.89 L 279.36 297.98 L 245.85 315.32 L 243.64 351.18 L 225.05 354.24 L 211.46 320.99 L 174.15 315.32 L 151.29 343.03 L 134.46 334.59 L 143.00 299.70 L 116.15 273.18 L 81.37 282.17 L 72.71 265.44 L 100.14 242.23 L 94.00 205.00 L 60.58 191.82 L 63.41 173.20 L 99.24 170.54 L 116.15 136.82 L 96.86 106.51 L 110.10 93.11 L 140.64 112.02 L 174.15 94.68 L 176.36 58.82 L 194.95 55.76 L 208.54 89.01 L 245.85 94.68 L 268.71 66.97 L 285.54 75.41 L 277.00 110.30 L 303.85 136.82 L 338.63 127.83 L 347.29 144.56 L 319.86 167.77 Z" fill="#6d6d6d" stroke-width="16"/>
<circle cx="210" cy="205" r="86" fill="#f4f4f4" stroke-width="16"/>
<circle cx="210" cy="205" r="58" fill="#6d6d6d" stroke-width="14"/>
<path d="M 240.00 205.00 L 249.76 209.39 L 248.58 215.55 L 237.89 216.04 L 231.21 226.21 L 235.01 236.22 L 229.82 239.75 L 221.91 232.53 L 210.00 235.00 L 205.61 244.76 L 199.45 243.58 L 198.96 232.89 L 188.79 226.21 L 178.78 230.01 L 175.25 224.82 L 182.47 216.91 L 180.00 205.00 L 170.24 200.61 L 171.42 194.45 L 182.11 193.96 L 188.79 183.79 L 184.99 173.78 L 190.18 170.25 L 198.09 177.47 L 210.00 175.00 L 214.39 165.24 L 220.55 166.42 L 221.04 177.11 L 231.21 183.79 L 241.22 179.99 L 244.75 185.18 L 237.53 193.09 Z" fill="#6d6d6d" stroke-width="9"/>
<circle cx="210" cy="205" r="11" fill="#f4f4f4" stroke-width="9"/>
<path d="M 446.00 372.00 L 467.54 381.37 L 465.31 394.57 L 441.88 396.34 L 428.69 419.57 L 439.17 440.59 L 428.97 449.27 L 409.89 435.56 L 384.85 444.88 L 379.37 467.72 L 365.97 467.81 L 360.17 445.05 L 335.00 436.09 L 316.12 450.06 L 305.80 441.52 L 315.98 420.35 L 302.46 397.31 L 279.02 395.87 L 276.60 382.70 L 298.01 373.03 L 302.46 346.69 L 285.42 330.52 L 292.04 318.87 L 314.65 325.23 L 335.00 307.91 L 332.34 284.57 L 344.90 279.91 L 358.13 299.31 L 384.85 299.12 L 397.82 279.54 L 410.43 284.03 L 408.10 307.40 L 428.69 324.43 L 451.21 317.76 L 457.99 329.32 L 441.18 345.72 Z" fill="#6d6d6d" stroke-width="14"/>
<circle cx="372" cy="372" r="40" fill="#f4f4f4" stroke-width="14"/>
<path d="M 259.00 355.00 L 273.64 361.58 L 271.87 370.83 L 255.84 371.57 L 245.82 386.82 L 251.51 401.83 L 243.73 407.12 L 231.87 396.30 L 214.00 400.00 L 207.42 414.64 L 198.17 412.87 L 197.43 396.84 L 182.18 386.82 L 167.17 392.51 L 161.88 384.73 L 172.70 372.87 L 169.00 355.00 L 154.36 348.42 L 156.13 339.17 L 172.16 338.43 L 182.18 323.18 L 176.49 308.17 L 184.27 302.88 L 196.13 313.70 L 214.00 310.00 L 220.58 295.36 L 229.83 297.13 L 230.57 313.16 L 245.82 323.18 L 260.83 317.49 L 266.12 325.27 L 255.30 337.13 Z" fill="#6d6d6d" stroke-width="12"/>
<circle cx="214" cy="355" r="14" fill="#f4f4f4" stroke-width="11"/>
</svg>
